
<svg version="1.1" xmlns="http://www.w3.org/2000/svg" xmlns:xlink="http://www.w3.org/1999/xlink" x="0px" y="0px"
	 viewBox="0 0 1000 1000" style="enable-background:new 0 0 1000 1000;" xml:space="preserve">
<style type="text/css">
	.st0{fill-rule:evenodd;clip-rule:evenodd;}
	.st1{fill-rule:evenodd;clip-rule:evenodd;fill:#34ebdb;stroke:#000000;stroke-width:3;stroke-miterlimit:10;}
	.st2{fill-rule:evenodd;clip-rule:evenodd;stroke:#000000;stroke-width:3;stroke-miterlimit:10;}
	.st3{fill-rule:evenodd;clip-rule:evenodd;fill:#FFFFFF;stroke:#000000;stroke-width:3;stroke-miterlimit:10;}
	.st4{fill-rule:evenodd;clip-rule:evenodd;fill:none;stroke:#000000;stroke-width:3;stroke-miterlimit:10;}
	.st5{stroke:#000000;stroke-miterlimit:10;}
	.st6{fill:none;stroke:#000000;stroke-width:3;stroke-miterlimit:10;}
	.st7{fill:none;stroke:#000000;stroke-width:9;stroke-linecap:round;stroke-miterlimit:10;}
	.st8{display:none;}
	.st9{display:inline;}
</style>
<g id="Bckground_lines">
	<g>
		<path class="st0" d="M452.3,761.5c0,0,19.6,35.2,24.3,46.8c7.5,18.8,10.1,94.9,10.1,94.9s0-58.3,9.5-86.3s26-50,26-50l-10.3,10.3
			c-1.4,1.3-10.2,3.3-15.1,4.7c-3.6,1.1-19.8,1.2-24.5,0.5C466.9,781.7,452.3,761.5,452.3,761.5z"/>
		<path d="M452.3,761.6c0.1,0.1,0.2,0.1,0.2,0.1c0,0,0.1,0.1,0.1,0.2l0.3,0.5l0.6,1l1.1,2l2.3,4l4.5,8.1c3,5.4,5.9,10.9,8.7,16.4
			c1.4,2.7,2.8,5.5,4.2,8.3c1.3,2.8,2.7,5.6,3.6,8.6c1.8,6,2.8,12.1,3.7,18.2c1.8,12.3,2.9,24.6,3.8,36.9c0.9,12.3,1.6,24.7,2.2,37
			l-2,0c0-12,0.5-24,1.3-35.9c0.8-12,2-23.9,4.2-35.8c1.1-5.9,2.5-11.9,4.6-17.6c2-5.7,4.3-11.3,6.9-16.7c2.6-5.4,5.5-10.8,8.5-15.9
			c3.1-5.2,6.3-10.2,9.9-15.1l2.1,1.8l-7.5,7.4l-1.9,1.8l-0.9,0.9c-0.6,0.5-1.1,0.7-1.5,0.9c-1.8,0.7-3.5,1.2-5.2,1.6l-5.1,1.3
			l-2.5,0.7l-1.3,0.3c-0.4,0.1-1,0.3-1.4,0.3c-3.6,0.5-7.1,0.5-10.7,0.5c-3.5,0-7-0.1-10.6-0.3c-0.9-0.1-1.7-0.1-2.8-0.3
			c-1-0.3-1.8-0.8-2.6-1.4c-1.5-1.1-2.8-2.3-4-3.6c-2.4-2.6-4.7-5.3-6.8-8.1c-1.1-1.4-2.1-2.8-3.2-4.2l-1.5-2.1l-0.8-1.1l-0.4-0.5
			l-0.2-0.3l-0.1-0.1l0-0.1C452.1,761.6,452.3,761.7,452.3,761.6z M452.2,761.4c0.1,0,0.3,0.1,0.3,0.1l0.1,0.1l0.1,0.1l0.2,0.3
			l0.4,0.5l0.8,1l1.7,2c1.1,1.4,2.2,2.7,3.4,4c2.3,2.6,4.6,5.3,7.1,7.7c1.3,1.2,2.5,2.4,3.9,3.3c0.7,0.5,1.4,0.9,2.1,1
			c0.7,0.1,1.6,0.2,2.5,0.2c3.5,0.1,7,0.1,10.4,0c3.5-0.1,7-0.3,10.3-0.8c0.4-0.1,0.7-0.2,1.1-0.3l1.3-0.4l2.5-0.7l5.1-1.4
			c1.7-0.5,3.4-1,4.8-1.6c0.3-0.1,0.7-0.4,0.8-0.4l0.9-0.9l1.8-1.9l7.4-7.5l2.1,1.8c-6.8,9.7-12.8,20-17.9,30.7
			c-2.6,5.3-4.9,10.8-6.9,16.4c-2.1,5.5-3.5,11.2-4.7,17.1c-2.3,11.7-3.6,23.5-4.5,35.4c-0.9,11.9-1.5,23.9-1.6,35.8l-2,0
			c-0.4-12.3-1-24.7-1.8-37c-0.8-12.3-1.8-24.6-3.4-36.9c-0.8-6.1-1.7-12.2-3.4-18.1c-0.8-2.9-2.2-5.7-3.5-8.5
			c-1.3-2.8-2.7-5.6-4.1-8.3c-2.8-5.5-5.6-11-8.5-16.5l-4.4-8.2l-2.2-4.1l-1.1-2l-0.6-1l-0.3-0.5c0-0.1-0.1-0.2-0.2-0.3
			C452.2,761.6,452.2,761.5,452.2,761.4z"/>
	</g>
	<path class="st1" d="M650.8,215.2c-57.1-4.3-93.9-16.5-108.8-22.3c-5.4-2.1-11.2-3.3-17.1-3.3c-20-0.2-65.3-0.5-81.1,1.4
		c-38.3,4.8-40.7,19.1-62.3,19.6c-52.6,1.4-54.5,4.5-51.7,51.1c5.4,86.6-5.7,176.1,24.2,269.4c26.6,83.2,88.7,222.4,108.9,245.9
		c6.4,7.5,46.1,6.8,56.6-6c10.1-12.3,27-28.2,77-145c26.1-61,43.8-135.8,48.6-189.2C659.1,282.4,650.8,215.2,650.8,215.2z"/>
	<path class="st2" d="M485.1,351.8c-16.7-23.3-31.8-35.8-53.4-40.8c-52.7-12.2-59,2.4-73.5-4.4c-12.6-5.9-23.1-11.3-23.1-11.3
		s0,0,22.5,31.9c20.1,28.5,32.7,55.7,64.5,57.9c18,1.3,25.4-7.6,41-20.8C476.5,352.9,485.1,351.8,485.1,351.8z"/>
	<path class="st3" d="M474,347c0,14.9-33,36-54.8,33c-21.7-3-58.5-51.3-54.5-58.8c7-13.2,32.7-15.6,54.2-11.3
		C453.8,317,474,332.1,474,347z"/>
	<path class="st2" d="M435.5,313.8c-5.1,0.8-9,4.8-9.3,19.3s3.6,32,3.6,32s-6.3-3.6-10-10.5c-3.7-6.8-5.1-16.8-5.6-29.3
		c-0.6-17.5,1.4-15.9,1.4-15.9L435.5,313.8z"/>
	<g>
		<path class="st2" d="M501,351.4c16.7-23.3,29.1-37.5,50.7-42.5c52.7-12.2,63,1.5,77.5-5.2c12.6-5.9,21.9-8.7,21.9-8.7
			s0,0-22.5,31.9c-20.1,28.5-32.7,55.7-64.5,57.9c-18,1.3-26.5-3.1-42-16.3C508.5,357,501,351.4,501,351.4z"/>
		<path class="st3" d="M512.1,346.7c0,14.9,33,36,54.8,33c21.7-3,58.5-51.3,54.5-58.8c-7-13.2-32.7-15.6-54.2-11.3
			C532.3,316.6,512.1,331.8,512.1,346.7z"/>
		<path class="st2" d="M550.6,313.4c5.1,0.8,9,4.8,9.3,19.3s-3.6,32-3.6,32s6.3-3.6,10-10.5c3.7-6.8,5.1-16.8,5.6-29.3
			c0.6-17.5-1.4-15.9-1.4-15.9L550.6,313.4z"/>
	</g>
	<path class="st4" d="M360.9,344c-8.4,4.2-11.3,27-8.9,28.4"/>
	<path class="st4" d="M369.9,361.2c-6.4,5.8-6.9,21.4-4.9,23.6"/>
	<path class="st4" d="M382.1,370.5c-4.5,8.3-7.1,26.6-3.1,30.5"/>
	<path class="st4" d="M398.1,383c-6.3,7-7.3,18.3-4.5,21.8"/>
	<g>
		<g>
			<path d="M413,392.5c-4.7,5-8.9,14.6-5.7,21.3c0.8,1.7,3.4,0.2,2.6-1.5c-2.5-5.3,1.6-13.8,5.2-17.7
				C416.5,393.2,414.4,391,413,392.5L413,392.5z"/>
		</g>
	</g>
	<g>
		<g>
			<path d="M424.2,399.1c-1.8,7.5-2.9,15.9,0,23.2c0.7,1.8,3.6,1,2.9-0.8c-2.7-6.8-1.7-14.6,0-21.6
				C427.5,398,424.6,397.2,424.2,399.1L424.2,399.1z"/>
		</g>
	</g>
	<path d="M640.2,360.5c0.8-9-3.3-18-8.2-25.4c-1.1-1.6-3.6-0.1-2.6,1.5c4.8,7.5,7.3,16.2,7.9,24.7
		C637.4,363.3,640,362.5,640.2,360.5z"/>
	<path d="M627.9,361.1c-1.4-3.9-3-7.9-6.4-10.2c-1.6-1.1-4.2,2.4-2.6,3.5c3.8,2.6,5.1,8.4,5.5,13.3c0.3,4.4,0.6,5.3,0.8,9.4
		c0.1,1.9,4.4,2.1,4.6-0.6C630.4,370.8,629.8,366.6,627.9,361.1z"/>
	<path d="M613.9,366.8c-0.4-1.9-5.1-0.2-4.6,1.7c2.1,9.6,4,22.9,3,28.1c-0.7,3.4,5,1.9,5.1,0C618.1,386.5,616,376.7,613.9,366.8z"/>
	<path d="M597.3,380.7c-1.1-1.6-5.4,1.1-4.3,2.8c4.1,6.3,4.3,14.5,2.5,21.8c-0.5,1.9,4.8,1.6,5.3-0.3
		C602.7,397,601.8,387.6,597.3,380.7z"/>
	<path d="M582.4,391.5c-1-1.6-6.8,0.2-5.8,1.9c3.6,5.9,4.6,12.5,4,19.4c-0.2,1.9,6.1,1.7,6.3-0.3
		C587.6,405.1,586.2,397.8,582.4,391.5z"/>
	<path d="M570.8,398c-0.2-1.9-6.4-1.1-5.3,1.7c1.9,4.7,1.4,15,0.6,21.3c-0.5,3.7,4.6,1.6,4.9-1.3C571.7,412.3,571.5,405.7,570.8,398
		z"/>
	<path d="M555.3,403.6c-0.3-1.9-3.2-1.1-2.9,0.8c1,6.5-0.7,12.8-4.5,18.1c-1.1,1.6,1.5,3.1,2.6,1.5
		C554.9,418,556.4,410.9,555.3,403.6z"/>
	<path d="M538.6,402.5c-0.1-1.9-3.1-1.9-3,0c0.2,6-1.3,11.6-4.5,16.6c-1,1.6,1.5,3.1,2.6,1.5C537.1,415.2,538.8,409,538.6,402.5z"/>
	<path d="M460.4,421c-2.4-5.5-3.5-10.3-2.5-17.4c0.3-1.9-4.2-2.3-4.5-0.4c-0.9,6.5-0.6,15.5,3.9,19.6
		C459,424.4,461.1,422.8,460.4,421z"/>
	<path class="st5" d="M442,422.6c-2.3-6.4-3.1-12.9-2.3-19.6c0.2-1.9-2.8-1.9-3,0c-0.7,7,0.1,13.8,2.4,20.4
		C439.8,425.2,442.7,424.4,442,422.6z"/>
	<path class="st6" d="M534.7,546.3"/>
	<path class="st6" d="M502.7,449"/>
	<path class="st7" d="M530.8,550.3"/>
	<polygon points="517.6,544.7 490,587.7 491,622.8 530.6,548 	"/>
	<polygon points="490,447.3 496,445.3 530.6,548 517.6,544.7 	"/>
	<polygon points="456,544.7 483.6,587.7 482.6,622.8 443,548 	"/>
	<polygon points="483.6,447.3 477.6,445.3 443,548 456,544.7 	"/>
	<g>
		<polyline class="st4" points="356.7,272.3 370.9,261.7 383.7,278.7 398.1,268 411,284 425.6,274.3 442.1,289.7 456.8,280.3 
			466.3,292.7 477.7,286.7 489,303.7 		"/>
		<circle class="st0" cx="365.5" cy="253.2" r="4.5"/>
		<circle class="st0" cx="389.5" cy="258.5" r="4.5"/>
		<circle class="st0" cx="417" cy="266.2" r="4.5"/>
		<circle class="st0" cx="443.3" cy="271.3" r="4.5"/>
		<circle class="st0" cx="471.2" cy="278.2" r="4.5"/>
	</g>
	<g>
		<polyline class="st4" points="637.6,272 623.4,261.3 610.6,278.3 596.2,267.7 583.3,283.7 568.7,274 552.2,289.3 537.5,280 
			528,292.3 516.6,286.3 505.3,303.3 		"/>
		<circle class="st0" cx="628.8" cy="252.8" r="4.5"/>
		<circle class="st0" cx="604.8" cy="258.2" r="4.5"/>
		<circle class="st0" cx="577.3" cy="265.8" r="4.5"/>
		<circle class="st0" cx="551" cy="271" r="4.5"/>
		<circle class="st0" cx="523.1" cy="277.8" r="4.5"/>
	</g>
	<polygon class="st0" points="488,674.5 488,707.3 513.5,707.3 	"/>
	<polygon class="st0" points="485.1,674.5 485.1,707.3 459.6,707.3 	"/>
	<polygon class="st0" points="459.6,712.5 513.5,712.5 486.5,762 	"/>
</g>
<g id="Layer_2">
	<g>
		<g>
			<g class="st8">
				<g class="st9">
					<line class="st6" x1="-130" y1="468.6" x2="976.1" y2="468.6"/>
				</g>
				<g class="st9">
					<line class="st6" x1="976.1" y1="468.6" x2="-130" y2="468.6"/>
				</g>
			</g>
			<path class="st6" d="M413.6,553.5"/>
			<line class="st6" x1="435.4" y1="539" x2="428.6" y2="553.5"/>
			<path class="st6" d="M414.6,553.5c13-30.5,13-30.5,13-30.5"/>
			<line class="st6" x1="417.1" y1="513" x2="398.3" y2="558"/>
			<line class="st6" x1="409.7" y1="491" x2="383.1" y2="552.7"/>
			<line class="st6" x1="404.7" y1="474.5" x2="366.6" y2="553.5"/>
		</g>
	</g>
	<g>
		<g>
			<g class="st8">
				<g class="st9">
					<line class="st6" x1="1106.1" y1="468.6" x2="0" y2="468.6"/>
				</g>
				<g class="st9">
					<line class="st6" x1="0" y1="468.6" x2="1106.1" y2="468.6"/>
				</g>
			</g>
			<path class="st6" d="M562.5,553.5"/>
			<line class="st6" x1="540.7" y1="539" x2="547.5" y2="553.5"/>
			<path class="st6" d="M561.5,553.5c-13-30.5-13-30.5-13-30.5"/>
			<line class="st6" x1="559" y1="513" x2="577.8" y2="558"/>
			<line class="st6" x1="566.4" y1="491" x2="593" y2="552.7"/>
			<line class="st6" x1="571.4" y1="474.5" x2="609.5" y2="553.5"/>
		</g>
	</g>
</g>
</svg>
