<svg width="203" height="153" viewBox="0 0 203 153" fill="none" xmlns="http://www.w3.org/2000/svg">
<path d="M44.4822 73.9637C44.4822 73.9637 84.7078 56.3605 124.988 43.7324C156.628 33.8124 188.302 26.9627 200.549 34.1348C228.374 50.4334 10.035 106.392 7.46575 98.9521C4.90143 91.5121 0.963135 63.9395 0.963135 63.9395L7.1681 61.1619L26.2492 78.5219L44.4822 73.9637Z" fill="#5CE61C"/>
<path d="M128.713 57.6749C127.89 61.3751 109.181 148.165 95.6943 152.079C82.2081 155.992 96.5178 64.8669 96.5178 64.8669L128.713 57.6749Z" fill="#5CE61C"/>
<path d="M133.316 47.2244C133.316 47.2244 152.814 4.11715 144.927 0.441784C137.041 -3.22861 102.227 46.4804 100.143 60.1155C98.0553 73.7555 133.316 47.2244 133.316 47.2244Z" fill="#5CE61C"/>
</svg>
